<?xml version="1.0" encoding="utf-8"?>
<!-- Generator: Adobe Illustrator 21.0.0, SVG Export Plug-In . SVG Version: 6.00 Build 0)  -->
<svg version="1.1" id="图层_1" xmlns="http://www.w3.org/2000/svg" xmlns:xlink="http://www.w3.org/1999/xlink" x="0px" y="0px"
	 viewBox="0 0 1024 1024" style="enable-background:new 0 0 1024 1024;" xml:space="preserve" width="60px" height="80px">
<g>
	<path fill="#fff" d="M749.4,373.9H710v-78.8c0-108.7-88.2-197-197-197c-108.7,0-197,88.2-197,197v78.8h-39.4c-43.5,0-78.8,35.3-78.8,78.8v393.9
		c0,43.5,35.3,78.8,78.8,78.8h472.7c43.5,0,78.8-35.3,78.8-78.8V452.7C828.2,409.2,792.9,373.9,749.4,373.9L749.4,373.9z M513,728.5
		c-43.5,0-78.8-35.3-78.8-78.8c0-43.5,35.3-78.8,78.8-78.8c43.5,0,78.8,35.3,78.8,78.8C591.8,693.2,556.5,728.5,513,728.5L513,728.5
		z M635.1,373.9H390.9v-78.8c0-67.4,54.8-122.1,122.1-122.1c67.4,0,122.1,54.8,122.1,122.1V373.9z M635.1,373.9"/>
</g>
</svg>
